<svg version="1.1" id="Layer_1" xmlns="http://www.w3.org/2000/svg" xmlns:xlink="http://www.w3.org/1999/xlink" x="0px" y="0px" viewBox="0 0 32 32" style="enable-background:new 0 0 32 32;" xml:space="preserve"><style type="text/css">.ic-quickhelp-st0{fill:#7B7B7B;}.ic-quickhelp-st1{fill:#0DD469;}</style><g id="Group_26251" transform="translate(-1310 -545)"><g id="search" transform="translate(1310 545)"><g id="Group_22388" transform="translate(0)"><g id="Group_22387"><path id="Path_59121" class="ic-quickhelp-st0" d="M20.2,4c-4.3,0-7.7,3.5-7.7,7.7c0,1.9,0.7,3.7,2,5.2l-1.5,1.5l-0.7-0.7 					c-0.2-0.2-0.5-0.2-0.7,0c0,0,0,0,0,0l-6.9,6.9c-0.8,0.8-0.8,2,0,2.8s2,0.8,2.8,0l0,0l6.9-6.9c0.2-0.2,0.2-0.5,0-0.7c0,0,0,0,0,0 					l-0.7-0.7l1.5-1.5c3.2,2.8,8.1,2.5,10.9-0.7s2.5-8.1-0.7-10.9C23.9,4.7,22.1,4,20.2,4z M6.8,26.7c-0.4,0.4-1.1,0.4-1.5,0 					c-0.4-0.4-0.4-1.1,0-1.5l6.5-6.5l1.5,1.5L6.8,26.7z M20.2,18.5c-3.7,0-6.8-3-6.8-6.8c0-3.7,3-6.8,6.8-6.8C24,5,27,8,27,11.7 					C27,15.5,23.9,18.5,20.2,18.5z"></path></g></g><g id="Group_22390" transform="translate(18.19 6.399)"><g id="Group_22389"><path id="Path_59122" class="ic-quickhelp-st1" d="M4.8,4C4.6,3.9,4.3,4,4.2,4.3c0,0,0,0,0,0L4.1,4.4C4,4.7,4.1,5,4.3,5.1 					c0.2,0.1,0.5,0,0.7-0.2l0.1-0.2C5.2,4.5,5.1,4.2,4.8,4C4.8,4,4.8,4,4.8,4z"></path></g></g><g id="Group_22392" transform="translate(10.339 4.959)"><g id="Group_22391"><path id="Path_59123" class="ic-quickhelp-st1" d="M12.1,6.9c-0.2-0.1-0.5,0-0.7,0.2c0,0,0,0,0,0l-0.8,1.7c0,0-0.1,0-0.1,0 					c-0.1,0-0.2,0-0.3,0L8.7,6.3c0.5-0.6,0.4-1.5-0.2-2c-0.6-0.5-1.5-0.4-2,0.2C6.1,5,6,5.7,6.4,6.2L5.8,7c-0.8-0.2-1.6,0.3-1.8,1 					c-0.2,0.8,0.3,1.6,1,1.8c0.8,0.2,1.6-0.3,1.8-1c0.1-0.4,0-0.9-0.2-1.2l0.5-0.8c0.2,0.1,0.4,0.1,0.7,0l1.5,2.6 					c-0.5,0.6-0.4,1.5,0.2,2s1.5,0.4,2-0.2c0.5-0.6,0.4-1.4-0.1-1.9l0.8-1.7C12.4,7.4,12.3,7.1,12.1,6.9C12.1,6.9,12.1,6.9,12.1,6.9 					z M5.5,8.9C5.2,8.9,5,8.7,5,8.4S5.2,8,5.5,8c0.3,0,0.5,0.2,0.5,0.5c0,0,0,0,0,0C5.9,8.7,5.7,8.9,5.5,8.9L5.5,8.9z M7.6,5.9 					c-0.3,0-0.5-0.2-0.5-0.5S7.3,5,7.6,5C7.8,5,8,5.2,8,5.4c0,0,0,0,0,0C8,5.7,7.8,5.9,7.6,5.9z M10.5,10.8c-0.3,0-0.5-0.2-0.5-0.5 					s0.2-0.5,0.5-0.5c0.3,0,0.5,0.2,0.5,0.5c0,0,0,0,0,0C10.9,10.6,10.7,10.8,10.5,10.8z"></path> 			</g></g><g id="Group_22394" transform="translate(18.241 3.441)"><g id="Group_22393"> 				<path id="Path_59124" class="ic-quickhelp-st1" d="M5.5,4C4.7,4,4.1,4.6,4.1,5.4s0.6,1.4,1.4,1.4c0.8,0,1.4-0.6,1.4-1.4c0,0,0,0,0,0 					C6.9,4.6,6.3,4,5.5,4z M5.5,5.9C5.2,5.9,5,5.7,5,5.4C5,5.2,5.2,5,5.5,5c0.3,0,0.5,0.2,0.5,0.5c0,0,0,0,0,0 					C5.9,5.7,5.7,5.9,5.5,5.9z"></path></g></g></g></g></svg>