<svg xmlns="http://www.w3.org/2000/svg" width="31" height="31" viewBox="0 0 31 31">
          <g id="Group_43167" data-name="Group 43167" transform="translate(-940 -1384)">
            <path id="Rectangle_20637" data-name="Rectangle 20637" d="M4,0H32a0,0,0,0,1,0,0V32a0,0,0,0,1,0,0H4a4,4,0,0,1-4-4V4A4,4,0,0,1,4,0Z" transform="translate(940 1384)" fill="#03ae66"></path>
            <g id="Group_42691" data-name="Group 42691" transform="translate(7 55)">
              <path id="Path_59372" data-name="Path 59372" d="M148,13.2,139,6l-9,7.2" transform="translate(810 1330)" fill="none" stroke="#fff" stroke-linecap="round" stroke-linejoin="round" stroke-width="1.5"></path>
              <path id="Path_59373" data-name="Path 59373" d="M132.667,12.121V24.612h4.8v-4.8h3.6v4.8h4.8V12.121" transform="translate(809.733 1329.388)" fill="none" stroke="#fff" stroke-linecap="round" stroke-linejoin="round" stroke-width="1.5"></path>
              <path id="Path_59374" data-name="Path 59374" d="M138,12.667h3.6v3.6H138Z" transform="translate(809.2 1329.333)" fill="none" stroke="#fff" stroke-linecap="round" stroke-linejoin="round" stroke-width="1.5"></path>
            </g>
          </g>
        </svg>