<svg xmlns="http://www.w3.org/2000/svg" width="32" height="32" viewBox="0 0 32 32"><g id="Group_30079" data-name="Group 30079" transform="translate(-1223.191 -10.191)"><path id="Path_10" data-name="Path 10" d="M96.5,81.5A16.007,16.007,0,0,1,73.584,95.932l6.952-2.369h0c.1,0,.2,0,.306,0a12.063,12.063,0,0,0-.352-24.121c-.11,0-.22,0-.331.005q-.29.008-.577.03a12.064,12.064,0,0,0-5.1,22.486l-.9,3.974a16,16,0,0,1,6.9-30.432H80.5A16,16,0,0,1,96.5,81.5Z" transform="translate(1158.691 -55.309)" fill="#0997eb"></path><path id="Path_11" data-name="Path 11" d="M324.179,331.265c2.311.924,3.466-.462,3.466-.462q.924-1.155.231-1.849l-2.773-1.849a1.116,1.116,0,0,0-.924,0c-1.156.924-1.849.693-1.849.693-.693,0-4.16-3.929-4.16-3.929a1.18,1.18,0,0,1-.231-1.174l.693-.906q.462-.462,0-1.155l-1.618-2.542c-.462-.693-.924-.462-.924-.462a6.827,6.827,0,0,0-1.387.693s-3.235,2.08,4.16,9.475A18.313,18.313,0,0,0,324.179,331.265Z" transform="translate(918.104 -298.396)" fill="#0997eb" fill-rule="evenodd"></path></g></svg>