<svg xmlns="http://www.w3.org/2000/svg" xmlns:xlink="http://www.w3.org/1999/xlink">
    <g id="Group_49709" data-name="Group 49709" transform="translate(0 4.589)">
      <path id="Path_1" data-name="Path 1" d="M1112.222,309.249l-3.087-1.591c-.615-.317-.615-.831,0-1.148l17.8-9.176c1.468-.757,1.468-1.983,0-2.74l-.078-.04a6.5,6.5,0,0,0-5.314,0l-17.8,9.176a2.725,2.725,0,0,1-2.227,0l-3.243-1.672c-.615-.317-.615-.831,0-1.148l17.8-9.176c1.468-.757,1.468-1.983,0-2.74l-.078-.041a6.507,6.507,0,0,0-5.314,0l-21.648,11.16c-1.468.757-1.468,1.983,0,2.74l21.648,11.16a6.5,6.5,0,0,0,5.314,0l21.648-11.16c1.468-.757,1.468-1.983,0-2.74l-.078-.04a6.5,6.5,0,0,0-5.314,0l-17.8,9.176A2.726,2.726,0,0,1,1112.222,309.249Z" transform="translate(-1087.93 -288.386)" fill="#03ae66"/>
      <path id="Path_2" data-name="Path 2" d="M1111.121,348v4.4a2,2,0,0,0,1.038,1.753l14.167,7.744a1.982,1.982,0,0,0,1.9,0l14.227-7.766a2,2,0,0,0,1.039-1.754V348a1.989,1.989,0,0,0-2.9-1.773l-10.985,5.7a5.045,5.045,0,0,1-4.656,0l-10.923-5.689A1.989,1.989,0,0,0,1111.121,348Z" transform="translate(-1101.9 -323.322)" fill="#03ae66"/>
    </g>
</svg>
