<?xml version="1.0" encoding="utf-8"?>
<!-- Generator: Adobe Illustrator 23.0.0, SVG Export Plug-In . SVG Version: 6.00 Build 0)  -->
<svg version="1.1" id="Layer_1" xmlns="http://www.w3.org/2000/svg" xmlns:xlink="http://www.w3.org/1999/xlink" x="0px" y="0px"
	 viewBox="0 0 24 24" style="enable-background:new 0 0 24 24;" xml:space="preserve">
<style type="text/css">
	.st0{fill:none;stroke:#03AE66;stroke-width:1.5;stroke-linecap:round;stroke-linejoin:round;}
	.st1{fill:none;stroke:#03AE66;stroke-width:1.5;stroke-linejoin:round;}
</style>
<g id="Group_42146" transform="translate(10275.75 -3813.25)">
	<path id="Rectangle_17515" class="st0" d="M-10270.8,3819.7h11.5c0.6,0,1,0.4,1,1v11.5c0,0.6-0.4,1-1,1h-11.5c-0.6,0-1-0.4-1-1
		v-11.5C-10271.8,3820.2-10271.3,3819.7-10270.8,3819.7z"/>
	<path id="Path_70709" class="st1" d="M-10269.3,3818.7c0-0.8,0.6-1.4,1.4-1.4c0,0,0,0,0,0h10.7c0.8,0,1.4,0.6,1.4,1.4c0,0,0,0,0,0
		v10.7c0,0.8-0.6,1.4-1.4,1.4c0,0,0,0,0,0"/>
</g>
</svg>
