<?xml version="1.0" encoding="utf-8"?>
<!-- Generator: Adobe Illustrator 23.0.0, SVG Export Plug-In . SVG Version: 6.00 Build 0)  -->
<svg version="1.1" id="Layer_1" xmlns="http://www.w3.org/2000/svg" xmlns:xlink="http://www.w3.org/1999/xlink" x="0px" y="0px"
	 viewBox="0 0 32 32" style="enable-background:new 0 0 32 32;" xml:space="preserve">
<style type="text/css">
	.st0{fill:#FFFFFF;stroke:#FFFFFF;stroke-width:0.7;}
	.st1{fill:#EEBD00;stroke:#EEBD00;stroke-width:0.2;}
</style>
<g id="Group_30566" transform="translate(-85.65 -125.65)">
	<g id="Group_30568" transform="translate(86 126)">
		<g id="Group_30566-2" transform="translate(0)">
			<path id="Path_70074" class="st0" d="M25,5.2h-1.9c-0.2-1-1.2-1.7-2.3-1.5c-0.8,0.2-1.3,0.7-1.5,1.5h-1.8c-0.2-1-1.2-1.7-2.3-1.5
				c-0.8,0.2-1.3,0.7-1.5,1.5h-1.4c-0.2-1-1.2-1.7-2.3-1.5C9.3,3.8,8.7,4.4,8.5,5.2H6.3c-1.4,0-2.6,1.2-2.6,2.6v17.3
				c0,1.4,1.2,2.6,2.6,2.6H25c1.4,0,2.6-1.2,2.6-2.6V7.8C27.6,6.3,26.5,5.2,25,5.2z M21.3,4.4c0.5,0,1,0.3,1.1,0.8h-2.3
				C20.3,4.7,20.8,4.4,21.3,4.4z M15.6,4.4c0.5,0,1,0.3,1.1,0.8h-2.3C14.7,4.7,15.1,4.4,15.6,4.4z M10.4,4.4c0.5,0,1,0.3,1.1,0.8
				H9.3C9.5,4.7,9.9,4.4,10.4,4.4L10.4,4.4z M4.4,7.8c0-1,0.9-1.9,1.9-1.9h2.3c0.2,0.9,1,1.5,1.9,1.5c0.2,0,0.4-0.2,0.4-0.4
				s-0.2-0.4-0.4-0.4c-0.5,0-1-0.3-1.1-0.8h4.5c0.2,0.9,1,1.5,1.9,1.5c0.2,0,0.4-0.2,0.4-0.4s-0.2-0.4-0.4-0.4c-0.5,0-1-0.3-1.1-0.8
				h4.9c0.2,0.9,1,1.5,1.9,1.5c0.2,0,0.4-0.2,0.4-0.4s-0.2-0.4-0.4-0.4c-0.5,0-1-0.3-1.1-0.8H25c1,0,1.9,0.8,1.9,1.9v0.9H4.4
				L4.4,7.8z M26.9,25.1c0,1-0.9,1.9-1.9,1.9H6.3c-1,0-1.9-0.8-1.9-1.9V9.4h22.5L26.9,25.1z"/>
		</g>
	</g>
	<path id="Path_59566" class="st1" d="M101.7,147.1c-0.1,0-0.1,0-0.2,0c-0.7-0.1-1.1-0.6-1.2-1.3c0-0.3-0.3-0.6-0.6-0.6
		c-0.3,0-0.6,0.3-0.6,0.6c0,0,0,0,0,0c0,1.1,0.7,2.1,1.8,2.4v0.6c0,0.3,0.3,0.6,0.6,0.6c0.3,0,0.6-0.3,0.6-0.6v-0.5
		c1.3-0.3,2.2-1.6,1.9-2.9c-0.2-1.1-1.2-2-2.4-2c-0.7,0-1.3-0.6-1.3-1.3s0.6-1.3,1.3-1.3c0.7,0,1.3,0.6,1.3,1.3l0,0
		c0,0.3,0.3,0.6,0.6,0.6c0.3,0,0.6-0.3,0.6-0.6c0-1.2-0.8-2.2-1.9-2.4v-0.5c0-0.3-0.3-0.6-0.6-0.6c-0.3,0-0.6,0.3-0.6,0.6
		c0,0,0,0,0,0l0,0v0.6c-1.3,0.3-2.1,1.7-1.7,3c0.3,1.1,1.3,1.8,2.4,1.8c0.7,0,1.3,0.6,1.2,1.4C102.9,146.5,102.4,147,101.7,147.1
		L101.7,147.1z"/>
</g>
</svg>
