<?xml version="1.0" encoding="utf-8"?>
<!-- Generator: Adobe Illustrator 23.0.0, SVG Export Plug-In . SVG Version: 6.00 Build 0)  -->
<svg version="1.1" id="Layer_1" xmlns="http://www.w3.org/2000/svg" xmlns:xlink="http://www.w3.org/1999/xlink" x="0px" y="0px"
	 viewBox="0 0 32 32" style="enable-background:new 0 0 32 32;" xml:space="preserve">
<style type="text/css">
	.st0{fill:#0DD469;stroke:#0DD469;stroke-width:0.5;}
	.st1{fill:#FFFFFF;stroke:#FFFFFF;stroke-width:0.5;}
	.st2{fill:none;}
</style>
<g id="Group_27310" transform="translate(-36 -33.057)">
	<g id="Group_27309" transform="translate(37.44 33.307)">
		<g id="save-money">
			<path id="Path_59566" class="st0" d="M14.9,16.8c0,0-0.1,0-0.1,0c-0.4-0.1-0.8-0.4-0.8-0.9c0-0.2-0.2-0.4-0.4-0.4
				c-0.2,0-0.4,0.2-0.4,0.4c0,0,0,0,0,0c0,0.8,0.5,1.4,1.2,1.6V18c0,0.2,0.2,0.4,0.4,0.4c0.2,0,0.4-0.2,0.4-0.4v-0.4
				c0.9-0.2,1.5-1.1,1.3-2c-0.2-0.8-0.9-1.3-1.7-1.3c-0.5,0-0.9-0.4-0.9-0.9s0.4-0.9,0.9-0.9s0.9,0.4,0.9,0.9c0,0,0,0,0,0l0,0
				c0,0.2,0.2,0.4,0.4,0.4c0.2,0,0.4-0.2,0.4-0.4c0-0.8-0.6-1.5-1.3-1.7v-0.4c0-0.2-0.2-0.4-0.4-0.4c-0.2,0-0.4,0.2-0.4,0.4
				c0,0,0,0,0,0l0,0v0.4c-0.9,0.2-1.4,1.2-1.2,2.1c0.2,0.7,0.9,1.2,1.6,1.2c0.5,0,0.9,0.4,0.9,0.9S15.3,16.8,14.9,16.8L14.9,16.8z"
				/>
			<path id="Path_59567" class="st1" d="M9.1,14.7c0,3.2,2.6,5.7,5.7,5.7s5.7-2.6,5.7-5.7c0-3.2-2.6-5.7-5.7-5.7
				C11.7,9,9.1,11.5,9.1,14.7L9.1,14.7z M14.8,9.8c2.7,0,4.9,2.2,4.9,4.9c0,2.7-2.2,4.9-4.9,4.9c-2.7,0-4.9-2.2-4.9-4.9l0,0l0,0
				C9.9,12,12.1,9.8,14.8,9.8C14.8,9.8,14.8,9.8,14.8,9.8z"/>
			<path id="Path_59568" class="st1" d="M22.5,21.4l-3.1,1.5c-0.4-0.8-1.2-1.3-2.1-1.3l-2.8-0.1c-0.5,0-0.9-0.1-1.3-0.3L12.8,21
				c-1.5-0.8-3.3-0.8-4.7,0l0-0.7c0-0.2-0.2-0.4-0.4-0.4l0,0l-3.1-0.1c-0.2,0-0.4,0.2-0.4,0.4l0,0L4,27c0,0.2,0.2,0.4,0.4,0.4l0,0
				l3.1,0.1h0c0.2,0,0.4-0.2,0.4-0.4l0-0.3l0.8-0.4c0.3-0.2,0.7-0.2,1-0.1l4.8,1.4l0,0c0.3,0.1,0.7,0.1,1.1,0.1
				c0.8,0,1.5-0.2,2.2-0.5c0,0,0,0,0,0l7-4.5c0.2-0.1,0.2-0.3,0.1-0.5C24.6,21.2,23.4,20.9,22.5,21.4L22.5,21.4z M4.8,26.7L5,20.6
				l2.3,0.1l-0.2,6.1L4.8,26.7z M17.5,26.6c-0.9,0.4-1.8,0.5-2.7,0.3L10,25.5c-0.5-0.2-1.1-0.1-1.6,0.2l-0.4,0.2l0.1-4
				c1.3-0.9,3-1,4.4-0.2l0.3,0.2c0.5,0.3,1.1,0.4,1.6,0.4l2.8,0.1c0.8,0,1.5,0.6,1.6,1.4l-4.2-0.1c-0.2,0-0.4,0.2-0.4,0.4
				c0,0.2,0.2,0.4,0.4,0.4l4.7,0.1h0c0.2,0,0.4-0.2,0.4-0.4c0-0.2,0-0.3,0-0.5l3.2-1.5h0c0.4-0.2,1-0.2,1.4,0.2L17.5,26.6z"/>
			<path id="Path_59569" class="st1" d="M15.2,7.9V4.1c0-0.2-0.2-0.4-0.4-0.4c-0.2,0-0.4,0.2-0.4,0.4c0,0,0,0,0,0v3.7
				c0,0.2,0.2,0.4,0.4,0.4C15,8.2,15.2,8.1,15.2,7.9L15.2,7.9z"/>
			<path id="Path_59570" class="st1" d="M18.2,7.9V6.1c0-0.2-0.2-0.4-0.4-0.4c-0.2,0-0.4,0.2-0.4,0.4c0,0,0,0,0,0l0,0v1.8
				c0,0.2,0.2,0.4,0.4,0.4C18,8.2,18.2,8.1,18.2,7.9L18.2,7.9z"/>
			<path id="Path_59571" class="st1" d="M12.3,7.9V6.1c0-0.2-0.2-0.4-0.4-0.4c-0.2,0-0.4,0.2-0.4,0.4c0,0,0,0,0,0l0,0v1.8
				c0,0.2,0.2,0.4,0.4,0.4C12.1,8.2,12.2,8.1,12.3,7.9L12.3,7.9z"/>
		</g>
	</g>
	<rect id="Rectangle_15414" x="40" y="37.1" class="st2" width="24" height="24"/>
</g>
</svg>
