<?xml version="1.0" encoding="utf-8"?>
<!-- Generator: Adobe Illustrator 23.0.0, SVG Export Plug-In . SVG Version: 6.00 Build 0)  -->
<svg version="1.1" id="Layer_1" xmlns="http://www.w3.org/2000/svg" xmlns:xlink="http://www.w3.org/1999/xlink" x="0px" y="0px"
	 viewBox="0 0 32 32" style="enable-background:new 0 0 32 32;" xml:space="preserve">
<style type="text/css">
	.st0{fill:#FFFFFF;}
	.st1{fill:#0CD469;stroke:#0DD469;stroke-width:0.2;}
</style>
<g id="Group_42402" transform="translate(-21.203 -262)">
	<g id="Group_42401">
		<g id="_2947998" transform="translate(-50.797 262)">
			<path id="Path_70817" class="st0" d="M79.1,25.8c-0.4,0-0.8-0.3-0.9-0.8V6.7c0.1-1.9,1.7-3.3,3.5-3.2h15.2c0.5,0,0.8,0.3,0.9,0.8
				v18c-0.1,0.5-0.5,0.8-0.9,0.8c-0.4,0-0.7-0.4-0.8-0.8V5H81.7c-1,0-1.8,0.7-1.8,1.7V25C79.9,25.4,79.5,25.8,79.1,25.8z"/>
			<path id="Path_70818" class="st0" d="M96.9,28.5H82c-1.9,0.2-3.7-1.3-3.8-3.2c-0.2-1.9,1.3-3.7,3.2-3.8c0.2,0,0.4,0,0.6,0h14.9
				c0.4,0,0.8,0.3,0.8,0.7c0,0.4-0.3,0.8-0.7,0.8c0,0-0.1,0-0.1,0H82c-1.1-0.1-2,0.7-2.1,1.8c-0.1,1.1,0.7,2,1.8,2.1
				c0.1,0,0.2,0,0.3,0h14.9c0.4,0,0.8,0.3,0.8,0.7c0,0.4-0.3,0.8-0.7,0.8C97,28.5,97,28.5,96.9,28.5z"/>
			<path id="Path_70819" class="st0" d="M96.9,25.8H82c-0.4,0-0.8-0.3-0.8-0.7c0-0.4,0.3-0.8,0.7-0.8c0,0,0.1,0,0.1,0h14.9
				c0.4,0,0.8,0.3,0.8,0.7c0,0.4-0.3,0.8-0.7,0.8C97,25.8,97,25.8,96.9,25.8z"/>
		</g>
		<path id="Path_59566" class="st1" d="M37.5,278.4c-0.1,0-0.1,0-0.2,0c-0.6-0.1-1.1-0.6-1.1-1.2c0-0.3-0.2-0.5-0.5-0.5
			s-0.5,0.2-0.5,0.5c0,1,0.7,1.9,1.7,2.2v0.5c0,0.3,0.2,0.5,0.5,0.5s0.5-0.2,0.5-0.5v-0.5c1.2-0.2,2-1.4,1.8-2.7
			c-0.2-1.1-1.2-1.8-2.2-1.8c-0.7,0-1.2-0.5-1.2-1.2s0.5-1.2,1.2-1.2c0.7,0,1.2,0.5,1.2,1.2l0,0c0,0.3,0.2,0.5,0.5,0.5
			s0.5-0.2,0.5-0.5l0,0c0-1.1-0.8-2-1.8-2.2V271c0-0.3-0.2-0.5-0.5-0.5s-0.5,0.2-0.5,0.5l0,0v0.5c-1.2,0.3-1.9,1.6-1.6,2.8
			c0.3,1,1.2,1.7,2.2,1.7c0.7,0,1.2,0.5,1.2,1.2C38.7,277.9,38.2,278.4,37.5,278.4z"/>
	</g>
</g>
</svg>
